<svg xmlns="http://www.w3.org/2000/svg" viewBox="0 0 64 64" role="img" aria-labelledby="title desc">
  <title id="title">Cai Xu 标志</title>
  <desc id="desc">蓝紫色渐变背景，中间有字母 C</desc>
  <defs>
    <linearGradient id="grad" x1="0%" y1="0%" x2="100%" y2="100%">
      <stop offset="0%" stop-color="#3f51b5" />
      <stop offset="100%" stop-color="#8fa2ff" />
    </linearGradient>
  </defs>
  <rect width="64" height="64" rx="12" fill="url(#grad)" />
  <path
    d="M41.3 20.6a2 2 0 0 1 0 2.8l-1.9 1.9a2 2 0 0 1-2.7.1 10 10 0 1 0 0 13.2 2 2 0 0 1 2.7.1l1.9 1.9a2 2 0 0 1 0 2.8 16 16 0 1 1 0-22.8 2 2 0 0 1 0 2.8z"
    fill="#ffffff"
  />
</svg>
